<?xml version="1.0" encoding="UTF-8" standalone="no"?>
<!-- Created with Inkscape (http://www.inkscape.org/) -->

<svg
   version="1.1"
   id="svg2"
   xml:space="preserve"
   width="1496"
   height="1496"
   viewBox="0 0 1496 1496"
   sodipodi:docname="3109966_35432.eps"
   xmlns:inkscape="http://www.inkscape.org/namespaces/inkscape"
   xmlns:sodipodi="http://sodipodi.sourceforge.net/DTD/sodipodi-0.dtd"
   xmlns="http://www.w3.org/2000/svg"
   xmlns:svg="http://www.w3.org/2000/svg"><defs
     id="defs6"><clipPath
       clipPathUnits="userSpaceOnUse"
       id="clipPath18"><path
         d="M 11220,0 H 0 V 11220 H 11220 V 0 M 4418.37,2204.11 c 340.56,-199.87 716.69,-294.52 1089.07,-294.55 355.94,-0.02 708.69,86.47 1024.11,249.97 55.59,-4 111.05,-5.98 166.36,-5.98 1227.68,0 2364.48,974.08 2372.22,2357.06 l 9.73,1743.08 v 0 c 0.01,1.35 0.02,2.74 0.02,4.09 5.53,1390.49 -1135.31,2379.48 -2371.66,2379.48 -78.62,0 -157.49,-3.99 -236.6,-12.13 -422.51,327.67 -933.74,489.13 -1443.73,489.13 -442.85,0 -884.81,-121.62 -1267.4,-361.7 -356.58,-223.74 -661.47,-550.39 -867.26,-977.31 L 2183.68,6303.24 c -0.34,-0.71 -0.68,-1.4 -1.02,-2.11 -0.14,-0.29 -0.2,-0.43 -0.34,-0.71 -0.23,-0.48 -0.45,-0.95 -0.68,-1.43 -0.14,-0.28 -0.25,-0.51 -0.39,-0.8 -0.23,-0.48 -0.42,-0.87 -0.64,-1.35 -0.14,-0.29 -0.26,-0.54 -0.4,-0.83 -0.23,-0.48 -0.47,-0.98 -0.7,-1.46 -0.09,-0.19 -0.21,-0.45 -0.3,-0.64 -0.34,-0.71 -0.67,-1.41 -1.02,-2.12 -0.04,-0.1 -0.1,-0.21 -0.14,-0.31 -0.3,-0.63 -0.56,-1.18 -0.87,-1.82 -0.13,-0.29 -0.22,-0.47 -0.36,-0.76 -0.22,-0.47 -0.41,-0.88 -0.64,-1.36 -0.14,-0.28 -0.27,-0.57 -0.41,-0.85 -0.22,-0.48 -0.39,-0.84 -0.62,-1.32 -0.13,-0.29 -0.26,-0.55 -0.39,-0.83 -0.23,-0.48 -0.43,-0.91 -0.65,-1.39 -0.14,-0.29 -0.22,-0.47 -0.36,-0.75 -0.34,-0.72 -0.63,-1.35 -0.97,-2.07 -0.09,-0.19 -0.19,-0.41 -0.28,-0.6 -0.23,-0.48 -0.49,-1.03 -0.71,-1.51 -0.13,-0.28 -0.28,-0.59 -0.41,-0.88 -0.19,-0.4 -0.41,-0.87 -0.59,-1.26 -0.14,-0.29 -0.29,-0.61 -0.42,-0.9 -0.19,-0.4 -0.39,-0.83 -0.57,-1.22 -0.14,-0.29 -0.31,-0.67 -0.45,-0.96 -0.18,-0.4 -0.42,-0.91 -0.61,-1.31 -0.09,-0.19 -0.27,-0.58 -0.36,-0.77 -0.29,-0.64 -0.65,-1.41 -0.95,-2.05 -0.09,-0.19 -0.25,-0.54 -0.34,-0.74 -0.22,-0.47 -0.43,-0.93 -0.65,-1.41 -0.14,-0.29 -0.27,-0.57 -0.4,-0.86 -0.18,-0.4 -0.39,-0.85 -0.57,-1.25 -0.18,-0.38 -0.26,-0.56 -0.44,-0.94 -0.18,-0.4 -0.38,-0.82 -0.56,-1.22 -0.13,-0.29 -0.29,-0.63 -0.42,-0.92 -0.19,-0.4 -0.41,-0.89 -0.6,-1.29 -0.08,-0.19 -0.29,-0.65 -0.38,-0.84 -0.29,-0.64 -0.63,-1.37 -0.92,-2.01 -0.18,-0.38 -0.23,-0.5 -0.4,-0.88 -0.19,-0.4 -0.38,-0.83 -0.57,-1.23 -0.13,-0.29 -0.32,-0.71 -0.45,-1 -0.18,-0.4 -0.34,-0.74 -0.52,-1.14 -0.17,-0.38 -0.28,-0.62 -0.45,-1 -0.19,-0.4 -0.33,-0.72 -0.51,-1.12 -0.13,-0.29 -0.33,-0.73 -0.46,-1.02 -0.22,-0.47 -0.38,-0.83 -0.6,-1.31 -0.09,-0.19 -0.26,-0.58 -0.35,-0.77 -0.29,-0.64 -0.62,-1.38 -0.91,-2.02 -0.17,-0.38 -0.27,-0.59 -0.44,-0.98 -0.18,-0.39 -0.33,-0.73 -0.51,-1.13 -0.13,-0.29 -0.35,-0.78 -0.48,-1.06 -0.14,-0.32 -0.32,-0.71 -0.46,-1.03 -0.17,-0.38 -0.32,-0.72 -0.49,-1.1 -0.18,-0.4 -0.31,-0.68 -0.48,-1.08 -0.18,-0.38 -0.29,-0.64 -0.46,-1.02 -0.18,-0.4 -0.37,-0.81 -0.54,-1.21 -0.22,-0.48 -0.43,-0.95 -0.64,-1.43 -0.22,-0.48 -0.43,-0.97 -0.65,-1.45 -0.17,-0.38 -0.27,-0.62 -0.44,-1 -0.14,-0.32 -0.37,-0.82 -0.51,-1.14 -0.13,-0.29 -0.32,-0.73 -0.45,-1.02 -0.14,-0.32 -0.36,-0.81 -0.5,-1.13 -0.13,-0.29 -0.31,-0.69 -0.43,-0.98 -0.18,-0.4 -0.34,-0.76 -0.52,-1.16 -0.17,-0.38 -0.27,-0.62 -0.44,-1 -0.21,-0.48 -0.37,-0.84 -0.58,-1.32 -0.17,-0.38 -0.4,-0.91 -0.57,-1.3 -0.21,-0.48 -0.44,-0.99 -0.65,-1.47 -0.16,-0.38 -0.28,-0.65 -0.45,-1.04 -0.14,-0.32 -0.34,-0.76 -0.48,-1.08 -0.16,-0.38 -0.3,-0.7 -0.47,-1.09 -0.14,-0.31 -0.3,-0.68 -0.44,-1 -0.17,-0.38 -0.32,-0.73 -0.48,-1.11 -0.14,-0.32 -0.33,-0.75 -0.47,-1.07 -0.17,-0.38 -0.29,-0.66 -0.46,-1.04 -0.13,-0.32 -0.37,-0.86 -0.51,-1.18 -0.25,-0.57 -0.54,-1.26 -0.79,-1.84 -0.14,-0.32 -0.32,-0.73 -0.46,-1.05 -0.17,-0.38 -0.31,-0.71 -0.47,-1.09 -0.14,-0.32 -0.31,-0.72 -0.45,-1.04 -0.17,-0.38 -0.31,-0.71 -0.47,-1.1 -0.14,-0.32 -0.31,-0.7 -0.45,-1.02 -0.12,-0.29 -0.34,-0.81 -0.47,-1.09 -0.13,-0.32 -0.29,-0.7 -0.43,-1.02 -0.17,-0.39 -0.32,-0.75 -0.49,-1.13 -0.17,-0.4 -0.35,-0.82 -0.52,-1.21 -0.24,-0.58 -0.48,-1.13 -0.72,-1.71 -0.18,-0.39 -0.31,-0.72 -0.48,-1.12 -0.17,-0.38 -0.32,-0.73 -0.48,-1.12 -0.14,-0.32 -0.29,-0.68 -0.43,-1 -0.16,-0.38 -0.32,-0.76 -0.48,-1.14 -0.14,-0.32 -0.27,-0.63 -0.41,-0.95 -0.16,-0.38 -0.33,-0.77 -0.49,-1.16 -0.13,-0.32 -0.29,-0.68 -0.42,-1 -0.17,-0.39 -0.31,-0.72 -0.47,-1.11 -0.17,-0.4 -0.36,-0.84 -0.53,-1.24 -0.28,-0.68 -0.51,-1.22 -0.79,-1.89 -0.14,-0.32 -0.24,-0.57 -0.38,-0.89 -0.16,-0.39 -0.35,-0.83 -0.51,-1.22 -0.1,-0.24 -0.28,-0.65 -0.38,-0.89 -0.16,-0.39 -0.34,-0.83 -0.5,-1.21 -0.14,-0.32 -0.25,-0.6 -0.39,-0.92 -0.16,-0.38 -0.33,-0.79 -0.49,-1.17 -0.13,-0.32 -0.22,-0.54 -0.36,-0.86 -0.64,-1.55 -1.24,-2.99 -1.88,-4.53 -0.1,-0.24 -0.2,-0.47 -0.3,-0.71 -0.2,-0.48 -0.33,-0.81 -0.53,-1.29 -0.1,-0.24 -0.25,-0.6 -0.35,-0.84 -0.16,-0.39 -0.36,-0.86 -0.52,-1.25 -0.09,-0.24 -0.24,-0.59 -0.34,-0.83 -0.16,-0.39 -0.36,-0.88 -0.52,-1.27 -0.13,-0.32 -0.19,-0.46 -0.32,-0.78 -0.64,-1.54 -1.25,-3.04 -1.88,-4.59 -0.1,-0.24 -0.19,-0.46 -0.29,-0.7 -0.2,-0.48 -0.33,-0.8 -0.53,-1.28 -0.13,-0.32 -0.21,-0.53 -0.34,-0.85 -0.16,-0.38 -0.36,-0.88 -0.52,-1.27 -0.1,-0.24 -0.22,-0.55 -0.32,-0.79 -0.16,-0.38 -0.37,-0.91 -0.53,-1.29 -0.13,-0.32 -0.16,-0.41 -0.29,-0.73 -0.39,-0.96 -0.75,-1.84 -1.14,-2.81 -0.06,-0.16 -0.12,-0.3 -0.18,-0.46 -0.2,-0.48 -0.32,-0.79 -0.52,-1.27 -0.13,-0.32 -0.2,-0.5 -0.33,-0.82 -0.19,-0.48 -0.32,-0.79 -0.51,-1.27 -0.13,-0.32 -0.2,-0.5 -0.33,-0.82 -0.15,-0.39 -0.38,-0.95 -0.53,-1.33 -0.1,-0.24 -0.17,-0.41 -0.27,-0.65 -0.19,-0.49 -0.38,-0.96 -0.57,-1.44 -0.06,-0.16 -0.12,-0.3 -0.18,-0.46 -0.47,-1.16 -0.89,-2.22 -1.35,-3.38 l -0.03,-0.07 c -0.19,-0.48 -0.42,-1.04 -0.61,-1.53 -0.09,-0.24 -0.11,-0.29 -0.21,-0.53 -0.19,-0.49 -0.37,-0.95 -0.57,-1.43 -0.06,-0.16 -0.2,-0.53 -0.27,-0.69 -0.19,-0.48 -0.36,-0.91 -0.55,-1.39 -0.1,-0.25 -0.15,-0.39 -0.25,-0.63 -0.19,-0.48 -0.38,-0.97 -0.57,-1.46 -0.03,-0.08 -0.08,-0.18 -0.11,-0.26 -0.45,-1.16 -0.93,-2.38 -1.39,-3.54 l -0.03,-0.09 c -0.19,-0.48 -0.42,-1.07 -0.61,-1.55 -0.09,-0.24 -0.11,-0.27 -0.2,-0.52 -0.19,-0.48 -0.39,-0.98 -0.57,-1.46 -0.07,-0.16 -0.19,-0.48 -0.25,-0.64 -0.19,-0.48 -0.38,-0.96 -0.57,-1.44 -0.09,-0.24 -0.1,-0.28 -0.2,-0.52 -0.9,-2.32 -1.83,-4.73 -2.73,-7.06 -0.06,-0.16 -0.1,-0.25 -0.16,-0.41 -0.19,-0.49 -0.4,-1.05 -0.59,-1.53 -0.06,-0.16 -0.15,-0.39 -0.21,-0.55 -0.18,-0.48 -0.41,-1.07 -0.59,-1.55 -0.03,-0.08 -0.1,-0.26 -0.13,-0.34 -0.71,-1.83 -1.38,-3.61 -2.08,-5.45 l -0.04,-0.09 c -0.22,-0.58 -0.41,-1.09 -0.63,-1.67 -0.06,-0.16 -0.08,-0.2 -0.14,-0.36 -0.22,-0.58 -0.4,-1.06 -0.62,-1.64 -0.06,-0.16 -0.08,-0.22 -0.15,-0.38 -0.22,-0.58 -0.42,-1.11 -0.64,-1.69 l -0.03,-0.09 c -0.95,-2.51 -1.86,-4.94 -2.8,-7.46 -0.03,-0.08 -0.08,-0.21 -0.11,-0.3 -0.22,-0.58 -0.41,-1.08 -0.62,-1.66 -0.06,-0.16 -0.07,-0.19 -0.13,-0.35 -0.94,-2.52 -1.84,-4.94 -2.76,-7.45 l -0.03,-0.07 c -0.21,-0.59 -0.42,-1.14 -0.63,-1.72 -0.06,-0.16 -0.06,-0.17 -0.12,-0.33 -0.22,-0.58 -0.41,-1.1 -0.62,-1.68 -0.03,-0.08 -0.08,-0.23 -0.11,-0.31 -1.14,-3.1 -2.3,-6.27 -3.42,-9.38 l -0.05,-0.13 c -0.21,-0.58 -0.45,-1.25 -0.66,-1.83 l -0.04,-0.11 c -1.16,-3.2 -2.28,-6.33 -3.42,-9.53 l -0.03,-0.09 C 1641.98,4824.7 2309.9,3499.26 3476.32,3060.02 l 472.92,-486.5 c 144.9,-149.06 302.82,-271.8 469.13,-369.41"
         id="path16" /></clipPath><linearGradient
       x1="0"
       y1="0"
       x2="1"
       y2="0"
       gradientUnits="userSpaceOnUse"
       gradientTransform="matrix(0,-11220,-11220,0,5610,11220)"
       spreadMethod="pad"
       id="linearGradient26"><stop
         style="stop-opacity:1;stop-color:#e6e6e7"
         offset="0"
         id="stop20" /><stop
         style="stop-opacity:1;stop-color:#fdfdfd"
         offset="0.453583"
         id="stop22" /><stop
         style="stop-opacity:1;stop-color:#d0d1d3"
         offset="1"
         id="stop24" /></linearGradient><clipPath
       clipPathUnits="userSpaceOnUse"
       id="clipPath38"><path
         d="m 5507.44,1909.56 c -372.38,0.03 -748.51,94.68 -1089.07,294.55 340.53,-199.85 716.4,-294.4 1088.76,-294.4 355.91,0 708.5,86.37 1023.92,249.86 0.21,-0.01 0.3,-0.02 0.5,-0.04 -315.42,-163.5 -668.17,-249.99 -1024.11,-249.97"
         id="path36" /></clipPath><linearGradient
       x1="0"
       y1="0"
       x2="1"
       y2="0"
       gradientUnits="userSpaceOnUse"
       gradientTransform="matrix(0,-11220,-11220,0,5610,11220)"
       spreadMethod="pad"
       id="linearGradient46"><stop
         style="stop-opacity:1;stop-color:#8fb0b2"
         offset="0"
         id="stop40" /><stop
         style="stop-opacity:1;stop-color:#9ec1c2"
         offset="0.453583"
         id="stop42" /><stop
         style="stop-opacity:1;stop-color:#82a0a2"
         offset="1"
         id="stop44" /></linearGradient><clipPath
       clipPathUnits="userSpaceOnUse"
       id="clipPath58"><path
         d="M 3476.32,3060.02 C 2309.9,3499.26 1641.98,4824.7 2082.57,6061.42 1642.07,4824.83 2309.94,3499.54 3476.15,3060.19 l 0.17,-0.17 M 2082.6,6061.51 c 1.14,3.2 2.26,6.33 3.42,9.53 -1.16,-3.22 -2.27,-6.32 -3.42,-9.53 m 3.46,9.64 c 0.21,0.58 0.45,1.25 0.66,1.83 -0.23,-0.64 -0.43,-1.19 -0.66,-1.83 m 0.71,1.96 c 1.12,3.11 2.28,6.28 3.42,9.38 -1.15,-3.13 -2.29,-6.24 -3.42,-9.38 m 3.53,9.69 c 0.21,0.58 0.4,1.1 0.62,1.68 -0.21,-0.56 -0.41,-1.12 -0.62,-1.68 m 0.74,2.01 c 0.21,0.58 0.42,1.13 0.63,1.72 -0.21,-0.57 -0.43,-1.16 -0.63,-1.72 m 0.66,1.79 c 0.92,2.51 1.82,4.93 2.76,7.45 -0.93,-2.49 -1.85,-4.96 -2.76,-7.45 m 2.89,7.8 c 0.21,0.58 0.4,1.08 0.62,1.66 -0.21,-0.56 -0.41,-1.1 -0.62,-1.66 m 0.73,1.96 c 0.94,2.52 1.85,4.95 2.8,7.46 -0.94,-2.48 -1.87,-4.97 -2.8,-7.46 m 2.83,7.55 c 0.22,0.58 0.42,1.11 0.64,1.69 -0.21,-0.56 -0.42,-1.13 -0.64,-1.69 m 0.79,2.07 c 0.22,0.58 0.4,1.06 0.62,1.64 -0.18,-0.49 -0.44,-1.16 -0.62,-1.64 m 0.76,2 c 0.22,0.58 0.41,1.09 0.63,1.67 -0.21,-0.56 -0.42,-1.11 -0.63,-1.67 m 0.67,1.76 c 0.7,1.84 1.37,3.62 2.08,5.45 -0.71,-1.84 -1.38,-3.6 -2.08,-5.45 m 2.21,5.79 c 0.18,0.48 0.41,1.07 0.59,1.55 -0.21,-0.56 -0.38,-0.99 -0.59,-1.55 m 0.8,2.1 c 0.19,0.48 0.4,1.04 0.59,1.53 -0.19,-0.49 -0.4,-1.05 -0.59,-1.53 m 0.75,1.94 c 0.9,2.33 1.83,4.74 2.73,7.06 -0.9,-2.33 -1.83,-4.73 -2.73,-7.06 m 2.93,7.58 c 0.19,0.48 0.38,0.96 0.57,1.44 -0.19,-0.48 -0.38,-0.96 -0.57,-1.44 m 0.82,2.08 c 0.18,0.48 0.38,0.98 0.57,1.46 -0.19,-0.48 -0.39,-0.98 -0.57,-1.46 m 0.77,1.98 c 0.19,0.48 0.42,1.07 0.61,1.55 -0.19,-0.48 -0.42,-1.07 -0.61,-1.55 m 0.64,1.64 c 0.46,1.16 0.94,2.38 1.39,3.54 -0.47,-1.2 -0.91,-2.33 -1.39,-3.54 m 1.5,3.8 c 0.19,0.49 0.38,0.98 0.57,1.46 -0.19,-0.48 -0.38,-0.98 -0.57,-1.46 m 0.82,2.09 c 0.19,0.48 0.36,0.91 0.55,1.39 -0.19,-0.48 -0.36,-0.91 -0.55,-1.39 m 0.82,2.08 c 0.2,0.48 0.38,0.94 0.57,1.43 -0.19,-0.48 -0.38,-0.95 -0.57,-1.43 m 0.78,1.96 c 0.19,0.49 0.42,1.05 0.61,1.53 -0.19,-0.48 -0.42,-1.05 -0.61,-1.53 m 0.64,1.6 c 0.46,1.16 0.88,2.22 1.35,3.38 -0.45,-1.12 -0.91,-2.26 -1.35,-3.38 m 1.53,3.84 c 0.19,0.48 0.38,0.95 0.57,1.44 -0.19,-0.49 -0.38,-0.96 -0.57,-1.44 m 0.84,2.09 c 0.15,0.38 0.38,0.94 0.53,1.33 -0.16,-0.4 -0.37,-0.93 -0.53,-1.33 m 0.86,2.15 c 0.19,0.48 0.32,0.79 0.51,1.27 -0.16,-0.4 -0.35,-0.87 -0.51,-1.27 m 0.84,2.09 c 0.2,0.48 0.32,0.79 0.52,1.27 -0.17,-0.4 -0.36,-0.87 -0.52,-1.27 m 0.7,1.73 c 0.39,0.97 0.75,1.85 1.14,2.81 -0.36,-0.88 -0.78,-1.92 -1.14,-2.81 m 1.43,3.54 c 0.16,0.38 0.37,0.91 0.53,1.29 -0.16,-0.4 -0.36,-0.89 -0.53,-1.29 m 0.85,2.08 c 0.16,0.39 0.36,0.89 0.52,1.27 -0.16,-0.4 -0.36,-0.87 -0.52,-1.27 m 0.86,2.12 c 0.2,0.48 0.33,0.8 0.53,1.28 -0.16,-0.4 -0.36,-0.88 -0.53,-1.28 m 0.82,1.98 c 0.63,1.55 1.24,3.05 1.88,4.59 -0.63,-1.52 -1.26,-3.07 -1.88,-4.59 m 2.2,5.37 c 0.16,0.39 0.36,0.88 0.52,1.27 -0.16,-0.4 -0.36,-0.87 -0.52,-1.27 m 0.86,2.1 c 0.16,0.39 0.36,0.86 0.52,1.25 -0.2,-0.48 -0.32,-0.77 -0.52,-1.25 m 0.87,2.09 c 0.2,0.48 0.33,0.81 0.53,1.29 -0.16,-0.4 -0.37,-0.89 -0.53,-1.29 m 0.83,2 c 0.64,1.54 1.24,2.98 1.88,4.53 -0.63,-1.52 -1.25,-3.01 -1.88,-4.53 m 2.24,5.39 c 0.16,0.38 0.33,0.79 0.49,1.17 -0.16,-0.4 -0.32,-0.77 -0.49,-1.17 m 0.88,2.09 c 0.16,0.38 0.34,0.82 0.5,1.21 -0.16,-0.4 -0.34,-0.81 -0.5,-1.21 m 0.88,2.1 c 0.16,0.39 0.35,0.83 0.51,1.22 -0.17,-0.4 -0.34,-0.82 -0.51,-1.22 m 0.89,2.11 c 0.28,0.67 0.51,1.21 0.79,1.89 -0.27,-0.64 -0.52,-1.25 -0.79,-1.89 m 1.32,3.13 c 0.16,0.39 0.3,0.72 0.47,1.11 -0.17,-0.4 -0.3,-0.71 -0.47,-1.11 m 0.89,2.11 c 0.16,0.39 0.33,0.78 0.49,1.16 -0.16,-0.4 -0.32,-0.76 -0.49,-1.16 m 0.9,2.11 c 0.16,0.38 0.32,0.76 0.48,1.14 -0.17,-0.39 -0.31,-0.74 -0.48,-1.14 m 0.91,2.14 c 0.16,0.39 0.31,0.74 0.48,1.12 -0.14,-0.32 -0.35,-0.8 -0.48,-1.12 m 0.96,2.24 c 0.24,0.58 0.48,1.13 0.72,1.71 -0.24,-0.56 -0.49,-1.15 -0.72,-1.71 m 1.24,2.92 c 0.17,0.38 0.32,0.74 0.49,1.13 -0.17,-0.4 -0.32,-0.73 -0.49,-1.13 m 0.92,2.15 c 0.13,0.28 0.35,0.8 0.47,1.09 -0.17,-0.4 -0.29,-0.69 -0.47,-1.09 m 0.92,2.11 c 0.16,0.39 0.3,0.72 0.47,1.1 -0.17,-0.4 -0.3,-0.7 -0.47,-1.1 m 0.92,2.14 c 0.16,0.38 0.3,0.71 0.47,1.09 -0.17,-0.4 -0.3,-0.7 -0.47,-1.09 m 0.93,2.14 c 0.25,0.58 0.54,1.27 0.79,1.84 -0.27,-0.64 -0.52,-1.2 -0.79,-1.84 m 1.3,3.02 c 0.17,0.38 0.29,0.66 0.46,1.04 -0.17,-0.4 -0.28,-0.64 -0.46,-1.04 m 0.93,2.11 c 0.16,0.38 0.31,0.73 0.48,1.11 -0.17,-0.4 -0.31,-0.71 -0.48,-1.11 m 0.92,2.11 c 0.17,0.39 0.31,0.71 0.47,1.09 -0.17,-0.4 -0.3,-0.69 -0.47,-1.09 m 0.95,2.17 c 0.17,0.39 0.29,0.66 0.45,1.04 -0.17,-0.39 -0.28,-0.64 -0.45,-1.04 m 1.1,2.51 c 0.17,0.39 0.4,0.92 0.57,1.3 -0.17,-0.4 -0.4,-0.9 -0.57,-1.3 m 1.15,2.62 c 0.17,0.38 0.27,0.62 0.44,1 -0.14,-0.32 -0.3,-0.68 -0.44,-1 m 0.96,2.16 c 0.12,0.29 0.3,0.69 0.43,0.98 -0.14,-0.32 -0.29,-0.66 -0.43,-0.98 m 0.93,2.11 c 0.13,0.29 0.32,0.73 0.45,1.02 -0.17,-0.4 -0.27,-0.62 -0.45,-1.02 m 0.96,2.16 c 0.17,0.38 0.27,0.62 0.44,1 -0.17,-0.4 -0.26,-0.6 -0.44,-1 m 1.09,2.45 c 0.21,0.48 0.42,0.95 0.64,1.43 -0.22,-0.48 -0.43,-0.96 -0.64,-1.43 m 1.18,2.64 c 0.17,0.38 0.28,0.64 0.46,1.02 -0.15,-0.31 -0.32,-0.7 -0.46,-1.02 m 0.94,2.1 c 0.17,0.38 0.32,0.72 0.49,1.1 -0.14,-0.32 -0.35,-0.78 -0.49,-1.1 m 0.95,2.13 c 0.13,0.28 0.35,0.77 0.48,1.06 -0.18,-0.4 -0.3,-0.67 -0.48,-1.06 m 0.99,2.19 c 0.17,0.39 0.27,0.6 0.44,0.98 -0.14,-0.31 -0.3,-0.66 -0.44,-0.98 m 1.35,3 c 0.09,0.19 0.26,0.58 0.35,0.77 -0.11,-0.24 -0.24,-0.54 -0.35,-0.77 m 0.95,2.08 c 0.13,0.29 0.33,0.73 0.46,1.02 -0.15,-0.32 -0.32,-0.7 -0.46,-1.02 m 0.97,2.14 c 0.17,0.38 0.28,0.62 0.45,1 -0.14,-0.31 -0.31,-0.68 -0.45,-1 m 0.97,2.14 c 0.13,0.29 0.32,0.71 0.45,1 -0.14,-0.32 -0.31,-0.68 -0.45,-1 m 1.02,2.23 c 0.17,0.38 0.22,0.5 0.4,0.88 -0.15,-0.32 -0.26,-0.57 -0.4,-0.88 m 1.32,2.89 c 0.09,0.19 0.3,0.65 0.38,0.84 -0.14,-0.32 -0.24,-0.52 -0.38,-0.84 m 0.98,2.13 c 0.13,0.29 0.29,0.63 0.42,0.92 -0.15,-0.32 -0.28,-0.6 -0.42,-0.92 m 0.98,2.14 c 0.18,0.38 0.26,0.56 0.44,0.94 -0.15,-0.31 -0.29,-0.62 -0.44,-0.94 m 1.01,2.19 c 0.13,0.29 0.26,0.57 0.4,0.86 -0.15,-0.32 -0.25,-0.54 -0.4,-0.86 m 1.05,2.27 c 0.09,0.2 0.25,0.55 0.34,0.74 -0.11,-0.24 -0.23,-0.5 -0.34,-0.74 m 1.29,2.79 c 0.09,0.19 0.27,0.58 0.36,0.77 -0.15,-0.32 -0.21,-0.45 -0.36,-0.77 m 0.97,2.08 c 0.14,0.29 0.31,0.67 0.45,0.96 -0.15,-0.32 -0.3,-0.64 -0.45,-0.96 m 1.02,2.18 c 0.13,0.29 0.28,0.61 0.42,0.9 -0.15,-0.32 -0.27,-0.58 -0.42,-0.9 m 1.01,2.16 c 0.13,0.29 0.28,0.6 0.41,0.88 -0.15,-0.31 -0.26,-0.56 -0.41,-0.88 m 1.12,2.39 c 0.09,0.19 0.19,0.41 0.28,0.6 -0.11,-0.24 -0.17,-0.36 -0.28,-0.6 m 1.25,2.67 c 0.14,0.28 0.22,0.46 0.36,0.75 -0.12,-0.24 -0.25,-0.51 -0.36,-0.75 m 1.01,2.14 c 0.13,0.28 0.26,0.54 0.39,0.83 -0.11,-0.24 -0.28,-0.6 -0.39,-0.83 m 1.01,2.15 c 0.14,0.28 0.27,0.57 0.41,0.85 -0.11,-0.23 -0.29,-0.62 -0.41,-0.85 m 1.05,2.21 c 0.14,0.29 0.23,0.47 0.36,0.76 -0.11,-0.24 -0.24,-0.52 -0.36,-0.76 m 1.23,2.58 c 0.04,0.1 0.1,0.21 0.14,0.31 -0.03,-0.08 -0.1,-0.23 -0.14,-0.31 m 1.16,2.43 c 0.09,0.19 0.21,0.45 0.3,0.64 -0.11,-0.23 -0.19,-0.4 -0.3,-0.64 m 1,2.1 c 0.14,0.29 0.26,0.54 0.4,0.83 -0.12,-0.24 -0.29,-0.59 -0.4,-0.83 m 1.04,2.18 c 0.14,0.29 0.25,0.52 0.39,0.8 -0.12,-0.24 -0.27,-0.56 -0.39,-0.8 m 1.07,2.23 c 0.14,0.28 0.2,0.42 0.34,0.71 -0.11,-0.24 -0.23,-0.48 -0.34,-0.71 m 4289.1,2324.69 c -422.49,327.59 -933.78,489.05 -1443.7,489.05 -442.83,0 -884.66,-121.55 -1267.23,-361.6 382.59,240.08 824.55,361.7 1267.4,361.7 509.99,0 1021.22,-161.46 1443.73,-489.13 l -0.2,-0.02"
         id="path56" /></clipPath><linearGradient
       x1="0"
       y1="0"
       x2="1"
       y2="0"
       gradientUnits="userSpaceOnUse"
       gradientTransform="matrix(0,-11220,-11220,0,5610,11220)"
       spreadMethod="pad"
       id="linearGradient66"><stop
         style="stop-opacity:1;stop-color:#0e73c6"
         offset="0"
         id="stop60" /><stop
         style="stop-opacity:1;stop-color:#107fd9"
         offset="0.453583"
         id="stop62" /><stop
         style="stop-opacity:1;stop-color:#0d69b5"
         offset="1"
         id="stop64" /></linearGradient><clipPath
       clipPathUnits="userSpaceOnUse"
       id="clipPath80"><path
         d="m 6697.91,2153.55 c -55.31,0 -110.77,1.98 -166.36,5.98 0.25,0.13 0.27,0.14 0.51,0.27 55.4,-3.98 110.75,-5.95 165.88,-5.95 1227.69,0 2364.45,973.78 2372.18,2356.76 l 9.74,1743.08 v 0 0 l -9.73,-1743.08 C 9062.39,3127.63 7925.59,2153.55 6697.91,2153.55 m 2381.97,4104.23 c 5.55,1390.49 -1135.29,2379.34 -2371.64,2379.34 -78.57,0 -157.39,-3.98 -236.46,-12.11 -0.08,0.06 -0.08,0.06 -0.16,0.12 79.11,8.14 157.98,12.13 236.6,12.13 1236.35,0 2377.19,-988.99 2371.66,-2379.48"
         id="path78" /></clipPath><linearGradient
       x1="0"
       y1="0"
       x2="1"
       y2="0"
       gradientUnits="userSpaceOnUse"
       gradientTransform="matrix(0,-11220,-11220,0,5610,11220)"
       spreadMethod="pad"
       id="linearGradient88"><stop
         style="stop-opacity:1;stop-color:#0e8275"
         offset="0"
         id="stop82" /><stop
         style="stop-opacity:1;stop-color:#108f80"
         offset="0.453583"
         id="stop84" /><stop
         style="stop-opacity:1;stop-color:#0d766b"
         offset="1"
         id="stop86" /></linearGradient><clipPath
       clipPathUnits="userSpaceOnUse"
       id="clipPath100"><path
         d="m 6531.55,2159.53 c -0.2,0.02 -0.29,0.03 -0.5,0.04 0.15,0.08 0.37,0.19 0.51,0.26 0.16,-0.01 0.35,-0.02 0.5,-0.03 -0.24,-0.13 -0.26,-0.14 -0.51,-0.27"
         id="path98" /></clipPath><linearGradient
       x1="0"
       y1="0"
       x2="1"
       y2="0"
       gradientUnits="userSpaceOnUse"
       gradientTransform="matrix(0,-11220,-11220,0,5610,11220)"
       spreadMethod="pad"
       id="linearGradient108"><stop
         style="stop-opacity:1;stop-color:#09635a"
         offset="0"
         id="stop102" /><stop
         style="stop-opacity:1;stop-color:#0a6d62"
         offset="0.453583"
         id="stop104" /><stop
         style="stop-opacity:1;stop-color:#085a52"
         offset="1"
         id="stop106" /></linearGradient><clipPath
       clipPathUnits="userSpaceOnUse"
       id="clipPath120"><path
         d="m 6471.58,8624.99 c -0.07,0.05 -0.09,0.07 -0.16,0.12 l 0.2,0.02 c 0.08,-0.06 0.08,-0.06 0.16,-0.12 -0.08,-0.01 -0.12,-0.02 -0.2,-0.02"
         id="path118" /></clipPath><linearGradient
       x1="0"
       y1="0"
       x2="1"
       y2="0"
       gradientUnits="userSpaceOnUse"
       gradientTransform="matrix(0,-11220,-11220,0,5610,11220)"
       spreadMethod="pad"
       id="linearGradient128"><stop
         style="stop-opacity:1;stop-color:#014164"
         offset="0"
         id="stop122" /><stop
         style="stop-opacity:1;stop-color:#01486e"
         offset="0.453583"
         id="stop124" /><stop
         style="stop-opacity:1;stop-color:#013b5c"
         offset="1"
         id="stop126" /></linearGradient></defs><sodipodi:namedview
     id="namedview4"
     pagecolor="#ffffff"
     bordercolor="#666666"
     borderopacity="1.0"
     inkscape:pageshadow="2"
     inkscape:pageopacity="0.0"
     inkscape:pagecheckerboard="0" /><g
     id="g8"
     inkscape:groupmode="layer"
     inkscape:label="ink_ext_XXXXXX"
     transform="matrix(1.3333333,0,0,-1.3333333,0,1496)"><g
       id="g10"
       transform="scale(0.1)"><g
         id="g12"><g
           id="g14"
           clip-path="url(#clipPath18)"><path
             d="M 11220,0 H 0 V 11220 H 11220 V 0 M 4418.37,2204.11 c 340.56,-199.87 716.69,-294.52 1089.07,-294.55 355.94,-0.02 708.69,86.47 1024.11,249.97 55.59,-4 111.05,-5.98 166.36,-5.98 1227.68,0 2364.48,974.08 2372.22,2357.06 l 9.73,1743.08 v 0 c 0.01,1.35 0.02,2.74 0.02,4.09 5.53,1390.49 -1135.31,2379.48 -2371.66,2379.48 -78.62,0 -157.49,-3.99 -236.6,-12.13 -422.51,327.67 -933.74,489.13 -1443.73,489.13 -442.85,0 -884.81,-121.62 -1267.4,-361.7 -356.58,-223.74 -661.47,-550.39 -867.26,-977.31 L 2183.68,6303.24 c -0.34,-0.71 -0.68,-1.4 -1.02,-2.11 -0.14,-0.29 -0.2,-0.43 -0.34,-0.71 -0.23,-0.48 -0.45,-0.95 -0.68,-1.43 -0.14,-0.28 -0.25,-0.51 -0.39,-0.8 -0.23,-0.48 -0.42,-0.87 -0.64,-1.35 -0.14,-0.29 -0.26,-0.54 -0.4,-0.83 -0.23,-0.48 -0.47,-0.98 -0.7,-1.46 -0.09,-0.19 -0.21,-0.45 -0.3,-0.64 -0.34,-0.71 -0.67,-1.41 -1.02,-2.12 -0.04,-0.1 -0.1,-0.21 -0.14,-0.31 -0.3,-0.63 -0.56,-1.18 -0.87,-1.82 -0.13,-0.29 -0.22,-0.47 -0.36,-0.76 -0.22,-0.47 -0.41,-0.88 -0.64,-1.36 -0.14,-0.28 -0.27,-0.57 -0.41,-0.85 -0.22,-0.48 -0.39,-0.84 -0.62,-1.32 -0.13,-0.29 -0.26,-0.55 -0.39,-0.83 -0.23,-0.48 -0.43,-0.91 -0.65,-1.39 -0.14,-0.29 -0.22,-0.47 -0.36,-0.75 -0.34,-0.72 -0.63,-1.35 -0.97,-2.07 -0.09,-0.19 -0.19,-0.41 -0.28,-0.6 -0.23,-0.48 -0.49,-1.03 -0.71,-1.51 -0.13,-0.28 -0.28,-0.59 -0.41,-0.88 -0.19,-0.4 -0.41,-0.87 -0.59,-1.26 -0.14,-0.29 -0.29,-0.61 -0.42,-0.9 -0.19,-0.4 -0.39,-0.83 -0.57,-1.22 -0.14,-0.29 -0.31,-0.67 -0.45,-0.96 -0.18,-0.4 -0.42,-0.91 -0.61,-1.31 -0.09,-0.19 -0.27,-0.58 -0.36,-0.77 -0.29,-0.64 -0.65,-1.41 -0.95,-2.05 -0.09,-0.19 -0.25,-0.54 -0.34,-0.74 -0.22,-0.47 -0.43,-0.93 -0.65,-1.41 -0.14,-0.29 -0.27,-0.57 -0.4,-0.86 -0.18,-0.4 -0.39,-0.85 -0.57,-1.25 -0.18,-0.38 -0.26,-0.56 -0.44,-0.94 -0.18,-0.4 -0.38,-0.82 -0.56,-1.22 -0.13,-0.29 -0.29,-0.63 -0.42,-0.92 -0.19,-0.4 -0.41,-0.89 -0.6,-1.29 -0.08,-0.19 -0.29,-0.65 -0.38,-0.84 -0.29,-0.64 -0.63,-1.37 -0.92,-2.01 -0.18,-0.38 -0.23,-0.5 -0.4,-0.88 -0.19,-0.4 -0.38,-0.83 -0.57,-1.23 -0.13,-0.29 -0.32,-0.71 -0.45,-1 -0.18,-0.4 -0.34,-0.74 -0.52,-1.14 -0.17,-0.38 -0.28,-0.62 -0.45,-1 -0.19,-0.4 -0.33,-0.72 -0.51,-1.12 -0.13,-0.29 -0.33,-0.73 -0.46,-1.02 -0.22,-0.47 -0.38,-0.83 -0.6,-1.31 -0.09,-0.19 -0.26,-0.58 -0.35,-0.77 -0.29,-0.64 -0.62,-1.38 -0.91,-2.02 -0.17,-0.38 -0.27,-0.59 -0.44,-0.98 -0.18,-0.39 -0.33,-0.73 -0.51,-1.13 -0.13,-0.29 -0.35,-0.78 -0.48,-1.06 -0.14,-0.32 -0.32,-0.71 -0.46,-1.03 -0.17,-0.38 -0.32,-0.72 -0.49,-1.1 -0.18,-0.4 -0.31,-0.68 -0.48,-1.08 -0.18,-0.38 -0.29,-0.64 -0.46,-1.02 -0.18,-0.4 -0.37,-0.81 -0.54,-1.21 -0.22,-0.48 -0.43,-0.95 -0.64,-1.43 -0.22,-0.48 -0.43,-0.97 -0.65,-1.45 -0.17,-0.38 -0.27,-0.62 -0.44,-1 -0.14,-0.32 -0.37,-0.82 -0.51,-1.14 -0.13,-0.29 -0.32,-0.73 -0.45,-1.02 -0.14,-0.32 -0.36,-0.81 -0.5,-1.13 -0.13,-0.29 -0.31,-0.69 -0.43,-0.98 -0.18,-0.4 -0.34,-0.76 -0.52,-1.16 -0.17,-0.38 -0.27,-0.62 -0.44,-1 -0.21,-0.48 -0.37,-0.84 -0.58,-1.32 -0.17,-0.38 -0.4,-0.91 -0.57,-1.3 -0.21,-0.48 -0.44,-0.99 -0.65,-1.47 -0.16,-0.38 -0.28,-0.65 -0.45,-1.04 -0.14,-0.32 -0.34,-0.76 -0.48,-1.08 -0.16,-0.38 -0.3,-0.7 -0.47,-1.09 -0.14,-0.31 -0.3,-0.68 -0.44,-1 -0.17,-0.38 -0.32,-0.73 -0.48,-1.11 -0.14,-0.32 -0.33,-0.75 -0.47,-1.07 -0.17,-0.38 -0.29,-0.66 -0.46,-1.04 -0.13,-0.32 -0.37,-0.86 -0.51,-1.18 -0.25,-0.57 -0.54,-1.26 -0.79,-1.84 -0.14,-0.32 -0.32,-0.73 -0.46,-1.05 -0.17,-0.38 -0.31,-0.71 -0.47,-1.09 -0.14,-0.32 -0.31,-0.72 -0.45,-1.04 -0.17,-0.38 -0.31,-0.71 -0.47,-1.1 -0.14,-0.32 -0.31,-0.7 -0.45,-1.02 -0.12,-0.29 -0.34,-0.81 -0.47,-1.09 -0.13,-0.32 -0.29,-0.7 -0.43,-1.02 -0.17,-0.39 -0.32,-0.75 -0.49,-1.13 -0.17,-0.4 -0.35,-0.82 -0.52,-1.21 -0.24,-0.58 -0.48,-1.13 -0.72,-1.71 -0.18,-0.39 -0.31,-0.72 -0.48,-1.12 -0.17,-0.38 -0.32,-0.73 -0.48,-1.12 -0.14,-0.32 -0.29,-0.68 -0.43,-1 -0.16,-0.38 -0.32,-0.76 -0.48,-1.14 -0.14,-0.32 -0.27,-0.63 -0.41,-0.95 -0.16,-0.38 -0.33,-0.77 -0.49,-1.16 -0.13,-0.32 -0.29,-0.68 -0.42,-1 -0.17,-0.39 -0.31,-0.72 -0.47,-1.11 -0.17,-0.4 -0.36,-0.84 -0.53,-1.24 -0.28,-0.68 -0.51,-1.22 -0.79,-1.89 -0.14,-0.32 -0.24,-0.57 -0.38,-0.89 -0.16,-0.39 -0.35,-0.83 -0.51,-1.22 -0.1,-0.24 -0.28,-0.65 -0.38,-0.89 -0.16,-0.39 -0.34,-0.83 -0.5,-1.21 -0.14,-0.32 -0.25,-0.6 -0.39,-0.92 -0.16,-0.38 -0.33,-0.79 -0.49,-1.17 -0.13,-0.32 -0.22,-0.54 -0.36,-0.86 -0.64,-1.55 -1.24,-2.99 -1.88,-4.53 -0.1,-0.24 -0.2,-0.47 -0.3,-0.71 -0.2,-0.48 -0.33,-0.81 -0.53,-1.29 -0.1,-0.24 -0.25,-0.6 -0.35,-0.84 -0.16,-0.39 -0.36,-0.86 -0.52,-1.25 -0.09,-0.24 -0.24,-0.59 -0.34,-0.83 -0.16,-0.39 -0.36,-0.88 -0.52,-1.27 -0.13,-0.32 -0.19,-0.46 -0.32,-0.78 -0.64,-1.54 -1.25,-3.04 -1.88,-4.59 -0.1,-0.24 -0.19,-0.46 -0.29,-0.7 -0.2,-0.48 -0.33,-0.8 -0.53,-1.28 -0.13,-0.32 -0.21,-0.53 -0.34,-0.85 -0.16,-0.38 -0.36,-0.88 -0.52,-1.27 -0.1,-0.24 -0.22,-0.55 -0.32,-0.79 -0.16,-0.38 -0.37,-0.91 -0.53,-1.29 -0.13,-0.32 -0.16,-0.41 -0.29,-0.73 -0.39,-0.96 -0.75,-1.84 -1.14,-2.81 -0.06,-0.16 -0.12,-0.3 -0.18,-0.46 -0.2,-0.48 -0.32,-0.79 -0.52,-1.27 -0.13,-0.32 -0.2,-0.5 -0.33,-0.82 -0.19,-0.48 -0.32,-0.79 -0.51,-1.27 -0.13,-0.32 -0.2,-0.5 -0.33,-0.82 -0.15,-0.39 -0.38,-0.95 -0.53,-1.33 -0.1,-0.24 -0.17,-0.41 -0.27,-0.65 -0.19,-0.49 -0.38,-0.96 -0.57,-1.44 -0.06,-0.16 -0.12,-0.3 -0.18,-0.46 -0.47,-1.16 -0.89,-2.22 -1.35,-3.38 l -0.03,-0.07 c -0.19,-0.48 -0.42,-1.04 -0.61,-1.53 -0.09,-0.24 -0.11,-0.29 -0.21,-0.53 -0.19,-0.49 -0.37,-0.95 -0.57,-1.43 -0.06,-0.16 -0.2,-0.53 -0.27,-0.69 -0.19,-0.48 -0.36,-0.91 -0.55,-1.39 -0.1,-0.25 -0.15,-0.39 -0.25,-0.63 -0.19,-0.48 -0.38,-0.97 -0.57,-1.46 -0.03,-0.08 -0.08,-0.18 -0.11,-0.26 -0.45,-1.16 -0.93,-2.38 -1.39,-3.54 l -0.03,-0.09 c -0.19,-0.48 -0.42,-1.07 -0.61,-1.55 -0.09,-0.24 -0.11,-0.27 -0.2,-0.52 -0.19,-0.48 -0.39,-0.98 -0.57,-1.46 -0.07,-0.16 -0.19,-0.48 -0.25,-0.64 -0.19,-0.48 -0.38,-0.96 -0.57,-1.44 -0.09,-0.24 -0.1,-0.28 -0.2,-0.52 -0.9,-2.32 -1.83,-4.73 -2.73,-7.06 -0.06,-0.16 -0.1,-0.25 -0.16,-0.41 -0.19,-0.49 -0.4,-1.05 -0.59,-1.53 -0.06,-0.16 -0.15,-0.39 -0.21,-0.55 -0.18,-0.48 -0.41,-1.07 -0.59,-1.55 -0.03,-0.08 -0.1,-0.26 -0.13,-0.34 -0.71,-1.83 -1.38,-3.61 -2.08,-5.45 l -0.04,-0.09 c -0.22,-0.58 -0.41,-1.09 -0.63,-1.67 -0.06,-0.16 -0.08,-0.2 -0.14,-0.36 -0.22,-0.58 -0.4,-1.06 -0.62,-1.64 -0.06,-0.16 -0.08,-0.22 -0.15,-0.38 -0.22,-0.58 -0.42,-1.11 -0.64,-1.69 l -0.03,-0.09 c -0.95,-2.51 -1.86,-4.94 -2.8,-7.46 -0.03,-0.08 -0.08,-0.21 -0.11,-0.3 -0.22,-0.58 -0.41,-1.08 -0.62,-1.66 -0.06,-0.16 -0.07,-0.19 -0.13,-0.35 -0.94,-2.52 -1.84,-4.94 -2.76,-7.45 l -0.03,-0.07 c -0.21,-0.59 -0.42,-1.14 -0.63,-1.72 -0.06,-0.16 -0.06,-0.17 -0.12,-0.33 -0.22,-0.58 -0.41,-1.1 -0.62,-1.68 -0.03,-0.08 -0.08,-0.23 -0.11,-0.31 -1.14,-3.1 -2.3,-6.27 -3.42,-9.38 l -0.05,-0.13 c -0.21,-0.58 -0.45,-1.25 -0.66,-1.83 l -0.04,-0.11 c -1.16,-3.2 -2.28,-6.33 -3.42,-9.53 l -0.03,-0.09 C 1641.98,4824.7 2309.9,3499.26 3476.32,3060.02 l 472.92,-486.5 c 144.9,-149.06 302.82,-271.8 469.13,-369.41"
             style="fill:url(#linearGradient26);fill-opacity:1;fill-rule:nonzero;stroke:none"
             id="path28" /></g></g><path
         d="M 2893.23,7775.25 2183.68,6303.24 c -627.02,-1300.8 49.81,-2774.9 1292.47,-3243.05 l 473.09,-486.67 c 725.32,-746.17 1775.68,-832.01 2582.32,-413.69 1289.33,-92.89 2530.48,905.52 2538.56,2350.78 l 9.74,1743.08 c 8.28,1481.13 -1283.64,2507.63 -2608.28,2371.3 -1131.36,877.44 -2897.49,562.75 -3578.35,-849.74"
         style="fill:#ffffff;fill-opacity:1;fill-rule:nonzero;stroke:none"
         id="path30" /><g
         id="g32"><g
           id="g34"
           clip-path="url(#clipPath38)"><path
             d="m 5507.44,1909.56 c -372.38,0.03 -748.51,94.68 -1089.07,294.55 340.53,-199.85 716.4,-294.4 1088.76,-294.4 355.91,0 708.5,86.37 1023.92,249.86 0.21,-0.01 0.3,-0.02 0.5,-0.04 -315.42,-163.5 -668.17,-249.99 -1024.11,-249.97"
             style="fill:url(#linearGradient46);fill-opacity:1;fill-rule:nonzero;stroke:none"
             id="path48" /></g></g><path
         d="m 5507.13,1909.71 c -372.36,0 -748.23,94.55 -1088.76,294.4 -166.33,97.62 -324.21,220.33 -469.12,369.41 l -472.92,486.49 c 255.2,-96.09 534.32,-149.79 830.84,-150.83 l 530.68,-1.86 592.45,-378.2 c 351.84,-224.6 728.38,-342.61 1100.75,-369.55 -315.42,-163.49 -668.01,-249.86 -1023.92,-249.86"
         style="fill:#9fc3c4;fill-opacity:1;fill-rule:nonzero;stroke:none"
         id="path50" /><g
         id="g52"><g
           id="g54"
           clip-path="url(#clipPath58)"><path
             d="M 3476.32,3060.02 C 2309.9,3499.26 1641.98,4824.7 2082.57,6061.42 1642.07,4824.83 2309.94,3499.54 3476.15,3060.19 l 0.17,-0.17 M 2082.6,6061.51 c 1.14,3.2 2.26,6.33 3.42,9.53 -1.16,-3.22 -2.27,-6.32 -3.42,-9.53 m 3.46,9.64 c 0.21,0.58 0.45,1.25 0.66,1.83 -0.23,-0.64 -0.43,-1.19 -0.66,-1.83 m 0.71,1.96 c 1.12,3.11 2.28,6.28 3.42,9.38 -1.15,-3.13 -2.29,-6.24 -3.42,-9.38 m 3.53,9.69 c 0.21,0.58 0.4,1.1 0.62,1.68 -0.21,-0.56 -0.41,-1.12 -0.62,-1.68 m 0.74,2.01 c 0.21,0.58 0.42,1.13 0.63,1.72 -0.21,-0.57 -0.43,-1.16 -0.63,-1.72 m 0.66,1.79 c 0.92,2.51 1.82,4.93 2.76,7.45 -0.93,-2.49 -1.85,-4.96 -2.76,-7.45 m 2.89,7.8 c 0.21,0.58 0.4,1.08 0.62,1.66 -0.21,-0.56 -0.41,-1.1 -0.62,-1.66 m 0.73,1.96 c 0.94,2.52 1.85,4.95 2.8,7.46 -0.94,-2.48 -1.87,-4.97 -2.8,-7.46 m 2.83,7.55 c 0.22,0.58 0.42,1.11 0.64,1.69 -0.21,-0.56 -0.42,-1.13 -0.64,-1.69 m 0.79,2.07 c 0.22,0.58 0.4,1.06 0.62,1.64 -0.18,-0.49 -0.44,-1.16 -0.62,-1.64 m 0.76,2 c 0.22,0.58 0.41,1.09 0.63,1.67 -0.21,-0.56 -0.42,-1.11 -0.63,-1.67 m 0.67,1.76 c 0.7,1.84 1.37,3.62 2.08,5.45 -0.71,-1.84 -1.38,-3.6 -2.08,-5.45 m 2.21,5.79 c 0.18,0.48 0.41,1.07 0.59,1.55 -0.21,-0.56 -0.38,-0.99 -0.59,-1.55 m 0.8,2.1 c 0.19,0.48 0.4,1.04 0.59,1.53 -0.19,-0.49 -0.4,-1.05 -0.59,-1.53 m 0.75,1.94 c 0.9,2.33 1.83,4.74 2.73,7.06 -0.9,-2.33 -1.83,-4.73 -2.73,-7.06 m 2.93,7.58 c 0.19,0.48 0.38,0.96 0.57,1.44 -0.19,-0.48 -0.38,-0.96 -0.57,-1.44 m 0.82,2.08 c 0.18,0.48 0.38,0.98 0.57,1.46 -0.19,-0.48 -0.39,-0.98 -0.57,-1.46 m 0.77,1.98 c 0.19,0.48 0.42,1.07 0.61,1.55 -0.19,-0.48 -0.42,-1.07 -0.61,-1.55 m 0.64,1.64 c 0.46,1.16 0.94,2.38 1.39,3.54 -0.47,-1.2 -0.91,-2.33 -1.39,-3.54 m 1.5,3.8 c 0.19,0.49 0.38,0.98 0.57,1.46 -0.19,-0.48 -0.38,-0.98 -0.57,-1.46 m 0.82,2.09 c 0.19,0.48 0.36,0.91 0.55,1.39 -0.19,-0.48 -0.36,-0.91 -0.55,-1.39 m 0.82,2.08 c 0.2,0.48 0.38,0.94 0.57,1.43 -0.19,-0.48 -0.38,-0.95 -0.57,-1.43 m 0.78,1.96 c 0.19,0.49 0.42,1.05 0.61,1.53 -0.19,-0.48 -0.42,-1.05 -0.61,-1.53 m 0.64,1.6 c 0.46,1.16 0.88,2.22 1.35,3.38 -0.45,-1.12 -0.91,-2.26 -1.35,-3.38 m 1.53,3.84 c 0.19,0.48 0.38,0.95 0.57,1.44 -0.19,-0.49 -0.38,-0.96 -0.57,-1.44 m 0.84,2.09 c 0.15,0.38 0.38,0.94 0.53,1.33 -0.16,-0.4 -0.37,-0.93 -0.53,-1.33 m 0.86,2.15 c 0.19,0.48 0.32,0.79 0.51,1.27 -0.16,-0.4 -0.35,-0.87 -0.51,-1.27 m 0.84,2.09 c 0.2,0.48 0.32,0.79 0.52,1.27 -0.17,-0.4 -0.36,-0.87 -0.52,-1.27 m 0.7,1.73 c 0.39,0.97 0.75,1.85 1.14,2.81 -0.36,-0.88 -0.78,-1.92 -1.14,-2.81 m 1.43,3.54 c 0.16,0.38 0.37,0.91 0.53,1.29 -0.16,-0.4 -0.36,-0.89 -0.53,-1.29 m 0.85,2.08 c 0.16,0.39 0.36,0.89 0.52,1.27 -0.16,-0.4 -0.36,-0.87 -0.52,-1.27 m 0.86,2.12 c 0.2,0.48 0.33,0.8 0.53,1.28 -0.16,-0.4 -0.36,-0.88 -0.53,-1.28 m 0.82,1.98 c 0.63,1.55 1.24,3.05 1.88,4.59 -0.63,-1.52 -1.26,-3.07 -1.88,-4.59 m 2.2,5.37 c 0.16,0.39 0.36,0.88 0.52,1.27 -0.16,-0.4 -0.36,-0.87 -0.52,-1.27 m 0.86,2.1 c 0.16,0.39 0.36,0.86 0.52,1.25 -0.2,-0.48 -0.32,-0.77 -0.52,-1.25 m 0.87,2.09 c 0.2,0.48 0.33,0.81 0.53,1.29 -0.16,-0.4 -0.37,-0.89 -0.53,-1.29 m 0.83,2 c 0.64,1.54 1.24,2.98 1.88,4.53 -0.63,-1.52 -1.25,-3.01 -1.88,-4.53 m 2.24,5.39 c 0.16,0.38 0.33,0.79 0.49,1.17 -0.16,-0.4 -0.32,-0.77 -0.49,-1.17 m 0.88,2.09 c 0.16,0.38 0.34,0.82 0.5,1.21 -0.16,-0.4 -0.34,-0.81 -0.5,-1.21 m 0.88,2.1 c 0.16,0.39 0.35,0.83 0.51,1.22 -0.17,-0.4 -0.34,-0.82 -0.51,-1.22 m 0.89,2.11 c 0.28,0.67 0.51,1.21 0.79,1.89 -0.27,-0.64 -0.52,-1.25 -0.79,-1.89 m 1.32,3.13 c 0.16,0.39 0.3,0.72 0.47,1.11 -0.17,-0.4 -0.3,-0.71 -0.47,-1.11 m 0.89,2.11 c 0.16,0.39 0.33,0.78 0.49,1.16 -0.16,-0.4 -0.32,-0.76 -0.49,-1.16 m 0.9,2.11 c 0.16,0.38 0.32,0.76 0.48,1.14 -0.17,-0.39 -0.31,-0.74 -0.48,-1.14 m 0.91,2.14 c 0.16,0.39 0.31,0.74 0.48,1.12 -0.14,-0.32 -0.35,-0.8 -0.48,-1.12 m 0.96,2.24 c 0.24,0.58 0.48,1.13 0.72,1.71 -0.24,-0.56 -0.49,-1.15 -0.72,-1.71 m 1.24,2.92 c 0.17,0.38 0.32,0.74 0.49,1.13 -0.17,-0.4 -0.32,-0.73 -0.49,-1.13 m 0.92,2.15 c 0.13,0.28 0.35,0.8 0.47,1.09 -0.17,-0.4 -0.29,-0.69 -0.47,-1.09 m 0.92,2.11 c 0.16,0.39 0.3,0.72 0.47,1.1 -0.17,-0.4 -0.3,-0.7 -0.47,-1.1 m 0.92,2.14 c 0.16,0.38 0.3,0.71 0.47,1.09 -0.17,-0.4 -0.3,-0.7 -0.47,-1.09 m 0.93,2.14 c 0.25,0.58 0.54,1.27 0.79,1.84 -0.27,-0.64 -0.52,-1.2 -0.79,-1.84 m 1.3,3.02 c 0.17,0.38 0.29,0.66 0.46,1.04 -0.17,-0.4 -0.28,-0.64 -0.46,-1.04 m 0.93,2.11 c 0.16,0.38 0.31,0.73 0.48,1.11 -0.17,-0.4 -0.31,-0.71 -0.48,-1.11 m 0.92,2.11 c 0.17,0.39 0.31,0.71 0.47,1.09 -0.17,-0.4 -0.3,-0.69 -0.47,-1.09 m 0.95,2.17 c 0.17,0.39 0.29,0.66 0.45,1.04 -0.17,-0.39 -0.28,-0.64 -0.45,-1.04 m 1.1,2.51 c 0.17,0.39 0.4,0.92 0.57,1.3 -0.17,-0.4 -0.4,-0.9 -0.57,-1.3 m 1.15,2.62 c 0.17,0.38 0.27,0.62 0.44,1 -0.14,-0.32 -0.3,-0.68 -0.44,-1 m 0.96,2.16 c 0.12,0.29 0.3,0.69 0.43,0.98 -0.14,-0.32 -0.29,-0.66 -0.43,-0.98 m 0.93,2.11 c 0.13,0.29 0.32,0.73 0.45,1.02 -0.17,-0.4 -0.27,-0.62 -0.45,-1.02 m 0.96,2.16 c 0.17,0.38 0.27,0.62 0.44,1 -0.17,-0.4 -0.26,-0.6 -0.44,-1 m 1.09,2.45 c 0.21,0.48 0.42,0.95 0.64,1.43 -0.22,-0.48 -0.43,-0.96 -0.64,-1.43 m 1.18,2.64 c 0.17,0.38 0.28,0.64 0.46,1.02 -0.15,-0.31 -0.32,-0.7 -0.46,-1.02 m 0.94,2.1 c 0.17,0.38 0.32,0.72 0.49,1.1 -0.14,-0.32 -0.35,-0.78 -0.49,-1.1 m 0.95,2.13 c 0.13,0.28 0.35,0.77 0.48,1.06 -0.18,-0.4 -0.3,-0.67 -0.48,-1.06 m 0.99,2.19 c 0.17,0.39 0.27,0.6 0.44,0.98 -0.14,-0.31 -0.3,-0.66 -0.44,-0.98 m 1.35,3 c 0.09,0.19 0.26,0.58 0.35,0.77 -0.11,-0.24 -0.24,-0.54 -0.35,-0.77 m 0.95,2.08 c 0.13,0.29 0.33,0.73 0.46,1.02 -0.15,-0.32 -0.32,-0.7 -0.46,-1.02 m 0.97,2.14 c 0.17,0.38 0.28,0.62 0.45,1 -0.14,-0.31 -0.31,-0.68 -0.45,-1 m 0.97,2.14 c 0.13,0.29 0.32,0.71 0.45,1 -0.14,-0.32 -0.31,-0.68 -0.45,-1 m 1.02,2.23 c 0.17,0.38 0.22,0.5 0.4,0.88 -0.15,-0.32 -0.26,-0.57 -0.4,-0.88 m 1.32,2.89 c 0.09,0.19 0.3,0.65 0.38,0.84 -0.14,-0.32 -0.24,-0.52 -0.38,-0.84 m 0.98,2.13 c 0.13,0.29 0.29,0.63 0.42,0.92 -0.15,-0.32 -0.28,-0.6 -0.42,-0.92 m 0.98,2.14 c 0.18,0.38 0.26,0.56 0.44,0.94 -0.15,-0.31 -0.29,-0.62 -0.44,-0.94 m 1.01,2.19 c 0.13,0.29 0.26,0.57 0.4,0.86 -0.15,-0.32 -0.25,-0.54 -0.4,-0.86 m 1.05,2.27 c 0.09,0.2 0.25,0.55 0.34,0.74 -0.11,-0.24 -0.23,-0.5 -0.34,-0.74 m 1.29,2.79 c 0.09,0.19 0.27,0.58 0.36,0.77 -0.15,-0.32 -0.21,-0.45 -0.36,-0.77 m 0.97,2.08 c 0.14,0.29 0.31,0.67 0.45,0.96 -0.15,-0.32 -0.3,-0.64 -0.45,-0.96 m 1.02,2.18 c 0.13,0.29 0.28,0.61 0.42,0.9 -0.15,-0.32 -0.27,-0.58 -0.42,-0.9 m 1.01,2.16 c 0.13,0.29 0.28,0.6 0.41,0.88 -0.15,-0.31 -0.26,-0.56 -0.41,-0.88 m 1.12,2.39 c 0.09,0.19 0.19,0.41 0.28,0.6 -0.11,-0.24 -0.17,-0.36 -0.28,-0.6 m 1.25,2.67 c 0.14,0.28 0.22,0.46 0.36,0.75 -0.12,-0.24 -0.25,-0.51 -0.36,-0.75 m 1.01,2.14 c 0.13,0.28 0.26,0.54 0.39,0.83 -0.11,-0.24 -0.28,-0.6 -0.39,-0.83 m 1.01,2.15 c 0.14,0.28 0.27,0.57 0.41,0.85 -0.11,-0.23 -0.29,-0.62 -0.41,-0.85 m 1.05,2.21 c 0.14,0.29 0.23,0.47 0.36,0.76 -0.11,-0.24 -0.24,-0.52 -0.36,-0.76 m 1.23,2.58 c 0.04,0.1 0.1,0.21 0.14,0.31 -0.03,-0.08 -0.1,-0.23 -0.14,-0.31 m 1.16,2.43 c 0.09,0.19 0.21,0.45 0.3,0.64 -0.11,-0.23 -0.19,-0.4 -0.3,-0.64 m 1,2.1 c 0.14,0.29 0.26,0.54 0.4,0.83 -0.12,-0.24 -0.29,-0.59 -0.4,-0.83 m 1.04,2.18 c 0.14,0.29 0.25,0.52 0.39,0.8 -0.12,-0.24 -0.27,-0.56 -0.39,-0.8 m 1.07,2.23 c 0.14,0.28 0.2,0.42 0.34,0.71 -0.11,-0.24 -0.23,-0.48 -0.34,-0.71 m 4289.1,2324.69 c -422.49,327.59 -933.78,489.05 -1443.7,489.05 -442.83,0 -884.66,-121.55 -1267.23,-361.6 382.59,240.08 824.55,361.7 1267.4,361.7 509.99,0 1021.22,-161.46 1443.73,-489.13 l -0.2,-0.02"
             style="fill:url(#linearGradient66);fill-opacity:1;fill-rule:nonzero;stroke:none"
             id="path68" /></g></g><path
         d="m 3476.33,3060.01 -0.01,0.01 -0.17,0.17 C 2309.94,3499.54 1642.07,4824.83 2082.57,6061.42 l 0.03,0.09 c 1.15,3.21 2.26,6.31 3.42,9.53 l 0.04,0.11 c 0.23,0.64 0.43,1.19 0.66,1.83 0.04,0.1 0.01,0.04 0.05,0.13 1.13,3.14 2.27,6.25 3.42,9.38 0.03,0.1 0.07,0.21 0.11,0.31 0.21,0.56 0.41,1.12 0.62,1.68 0.03,0.1 0.08,0.23 0.12,0.33 0.2,0.56 0.42,1.15 0.63,1.72 l 0.03,0.07 c 0.91,2.49 1.83,4.96 2.76,7.45 0.03,0.1 0.09,0.25 0.13,0.35 0.21,0.56 0.41,1.1 0.62,1.66 0.04,0.1 0.07,0.2 0.11,0.3 0.93,2.49 1.86,4.98 2.8,7.46 l 0.03,0.09 c 0.22,0.56 0.43,1.13 0.64,1.69 0.04,0.1 0.11,0.29 0.15,0.38 0.18,0.48 0.44,1.15 0.62,1.64 0.04,0.09 0.1,0.26 0.14,0.36 0.21,0.56 0.42,1.11 0.63,1.67 l 0.04,0.09 c 0.7,1.85 1.37,3.61 2.08,5.45 0.03,0.1 0.09,0.24 0.13,0.34 0.21,0.56 0.38,0.99 0.59,1.55 0.08,0.19 0.14,0.36 0.21,0.55 0.19,0.48 0.4,1.04 0.59,1.53 0.07,0.19 0.09,0.22 0.16,0.41 0.9,2.33 1.83,4.73 2.73,7.06 0.08,0.19 0.13,0.32 0.2,0.52 0.19,0.48 0.38,0.96 0.57,1.44 0.07,0.2 0.17,0.45 0.25,0.64 0.18,0.48 0.38,0.98 0.57,1.46 0.07,0.2 0.12,0.33 0.2,0.52 0.19,0.48 0.42,1.07 0.61,1.55 0.04,0.1 0,0 0.03,0.09 0.48,1.21 0.92,2.34 1.39,3.54 0.04,0.1 0.07,0.17 0.11,0.26 0.19,0.48 0.38,0.98 0.57,1.46 0.08,0.19 0.17,0.43 0.25,0.63 0.19,0.48 0.36,0.91 0.55,1.39 0.08,0.2 0.2,0.5 0.27,0.69 0.19,0.48 0.38,0.95 0.57,1.43 0.08,0.19 0.14,0.34 0.21,0.53 0.19,0.48 0.42,1.05 0.61,1.53 l 0.03,0.07 c 0.44,1.12 0.9,2.26 1.35,3.38 0.07,0.2 0.1,0.27 0.18,0.46 0.19,0.48 0.38,0.95 0.57,1.44 0.08,0.19 0.19,0.45 0.27,0.65 0.16,0.4 0.37,0.93 0.53,1.33 0.12,0.29 0.21,0.53 0.33,0.82 0.16,0.4 0.35,0.87 0.51,1.27 0.08,0.19 0.26,0.63 0.33,0.82 0.16,0.4 0.35,0.87 0.52,1.27 0.03,0.1 0.14,0.37 0.18,0.46 0.36,0.89 0.78,1.93 1.14,2.81 0.12,0.29 0.18,0.44 0.29,0.73 0.17,0.4 0.37,0.89 0.53,1.29 0.12,0.29 0.2,0.5 0.32,0.79 0.16,0.4 0.36,0.87 0.52,1.27 0.12,0.29 0.23,0.56 0.34,0.85 0.17,0.4 0.37,0.88 0.53,1.28 0.08,0.2 0.21,0.51 0.29,0.7 0.62,1.52 1.25,3.07 1.88,4.59 0.12,0.29 0.2,0.49 0.32,0.78 0.16,0.4 0.36,0.87 0.52,1.27 0.12,0.29 0.23,0.54 0.34,0.83 0.2,0.48 0.32,0.77 0.52,1.25 0.12,0.29 0.23,0.55 0.35,0.84 0.16,0.4 0.37,0.89 0.53,1.29 0.08,0.19 0.22,0.52 0.3,0.71 0.63,1.52 1.25,3.01 1.88,4.53 0.12,0.29 0.24,0.57 0.36,0.86 0.17,0.4 0.33,0.77 0.49,1.17 0.13,0.29 0.26,0.63 0.39,0.92 0.16,0.4 0.34,0.81 0.5,1.21 0.12,0.29 0.26,0.6 0.38,0.89 0.17,0.4 0.34,0.82 0.51,1.22 0.12,0.29 0.25,0.6 0.38,0.89 0.27,0.64 0.52,1.25 0.79,1.89 0.16,0.38 0.37,0.86 0.53,1.24 0.17,0.4 0.3,0.71 0.47,1.11 0.16,0.38 0.26,0.62 0.42,1 0.17,0.4 0.33,0.76 0.49,1.16 0.13,0.29 0.28,0.66 0.41,0.95 0.17,0.4 0.31,0.75 0.48,1.14 0.13,0.29 0.31,0.71 0.43,1 0.13,0.32 0.34,0.8 0.48,1.12 0.16,0.39 0.31,0.74 0.48,1.12 0.23,0.56 0.48,1.15 0.72,1.71 0.17,0.38 0.36,0.82 0.52,1.21 0.17,0.4 0.32,0.73 0.49,1.13 0.16,0.38 0.27,0.63 0.43,1.02 0.18,0.4 0.3,0.69 0.47,1.09 0.17,0.38 0.28,0.64 0.45,1.02 0.17,0.4 0.3,0.7 0.47,1.1 0.13,0.29 0.32,0.75 0.45,1.04 0.17,0.39 0.3,0.69 0.47,1.09 0.17,0.39 0.29,0.67 0.46,1.05 0.27,0.64 0.52,1.2 0.79,1.84 0.17,0.39 0.35,0.79 0.51,1.18 0.18,0.4 0.29,0.64 0.46,1.04 0.13,0.29 0.34,0.78 0.47,1.07 0.17,0.4 0.31,0.71 0.48,1.11 0.17,0.39 0.27,0.62 0.44,1 0.17,0.4 0.3,0.69 0.47,1.09 0.13,0.29 0.35,0.79 0.48,1.08 0.17,0.4 0.28,0.65 0.45,1.04 0.22,0.49 0.44,0.99 0.65,1.47 0.17,0.4 0.4,0.9 0.57,1.3 0.21,0.48 0.37,0.84 0.58,1.32 0.14,0.32 0.3,0.68 0.44,1 0.17,0.39 0.35,0.78 0.52,1.16 0.14,0.32 0.29,0.66 0.43,0.98 0.17,0.39 0.33,0.74 0.5,1.13 0.18,0.4 0.28,0.62 0.45,1.02 0.17,0.39 0.34,0.75 0.51,1.14 0.18,0.4 0.27,0.6 0.44,1 0.22,0.48 0.43,0.97 0.65,1.45 0.21,0.47 0.42,0.95 0.64,1.43 0.17,0.38 0.37,0.83 0.54,1.21 0.14,0.32 0.31,0.71 0.46,1.02 0.12,0.29 0.35,0.79 0.48,1.08 0.14,0.32 0.35,0.78 0.49,1.1 0.17,0.38 0.29,0.64 0.46,1.03 0.18,0.39 0.3,0.66 0.48,1.06 0.17,0.38 0.34,0.75 0.51,1.13 0.14,0.32 0.3,0.67 0.44,0.98 0.31,0.68 0.61,1.34 0.91,2.02 0.11,0.23 0.24,0.53 0.35,0.77 0.22,0.48 0.38,0.83 0.6,1.31 0.14,0.32 0.31,0.7 0.46,1.02 0.17,0.38 0.33,0.73 0.51,1.12 0.14,0.32 0.31,0.69 0.45,1 0.18,0.39 0.34,0.76 0.52,1.14 0.14,0.32 0.31,0.68 0.45,1 0.18,0.38 0.39,0.84 0.57,1.23 0.14,0.31 0.25,0.56 0.4,0.88 0.31,0.67 0.61,1.34 0.92,2.01 0.14,0.32 0.24,0.52 0.38,0.84 0.22,0.48 0.38,0.81 0.6,1.29 0.14,0.32 0.27,0.6 0.42,0.92 0.18,0.39 0.38,0.83 0.56,1.22 0.15,0.32 0.29,0.63 0.44,0.94 0.17,0.39 0.39,0.87 0.57,1.25 0.15,0.32 0.25,0.54 0.4,0.86 0.22,0.48 0.43,0.94 0.65,1.41 0.11,0.24 0.23,0.5 0.34,0.74 0.36,0.77 0.6,1.28 0.95,2.05 0.15,0.32 0.21,0.45 0.36,0.77 0.23,0.48 0.39,0.83 0.61,1.31 0.15,0.32 0.3,0.64 0.45,0.96 0.18,0.38 0.39,0.84 0.57,1.22 0.15,0.32 0.27,0.58 0.42,0.9 0.22,0.47 0.36,0.78 0.59,1.26 0.15,0.32 0.26,0.57 0.41,0.88 0.23,0.48 0.48,1.03 0.71,1.51 0.11,0.24 0.17,0.36 0.28,0.6 0.32,0.67 0.66,1.4 0.97,2.07 0.11,0.24 0.24,0.51 0.36,0.75 0.22,0.48 0.42,0.91 0.65,1.39 0.11,0.23 0.28,0.59 0.39,0.83 0.18,0.38 0.44,0.93 0.62,1.32 0.12,0.23 0.3,0.62 0.41,0.85 0.23,0.48 0.42,0.88 0.64,1.36 0.12,0.24 0.25,0.52 0.36,0.76 0.28,0.58 0.6,1.25 0.87,1.82 0.04,0.08 0.11,0.23 0.14,0.31 0.37,0.76 0.65,1.35 1.02,2.12 0.11,0.24 0.19,0.41 0.3,0.64 0.23,0.48 0.47,0.98 0.7,1.46 0.11,0.24 0.28,0.59 0.4,0.83 0.18,0.38 0.46,0.97 0.64,1.35 0.12,0.24 0.27,0.56 0.39,0.8 0.23,0.48 0.45,0.95 0.68,1.43 0.11,0.23 0.23,0.47 0.34,0.71 0.32,0.67 0.7,1.44 1.02,2.11 l 709.55,1472.01 c 205.79,426.91 510.67,753.55 867.26,977.31 382.57,240.05 824.4,361.6 1267.23,361.6 509.92,0 1021.21,-161.46 1443.7,-489.05 -341.47,-35.13 -684.88,-147.53 -1008.99,-349.37 l -1368.48,-852.2 -152.41,-32.28 C 2257.7,7034.7 1627.01,4962.46 2826.72,3728.29 l 649.61,-668.28"
         style="fill:#1080db;fill-opacity:1;fill-rule:nonzero;stroke:none"
         id="path70" /><path
         d="m 4837.85,2907.32 -530.68,1.86 c -296.52,1.04 -575.64,54.74 -830.84,150.83 l -649.61,668.28 C 1627.01,4962.46 2257.7,7034.7 3941.54,7391.26 l 152.41,32.28 -18.64,-11.61 C 2597.72,6491.78 2585.72,4345 4052.93,3408.39 l 784.92,-501.07"
         style="fill:#0a62a8;fill-opacity:1;fill-rule:nonzero;stroke:none"
         id="path72" /><g
         id="g74"><g
           id="g76"
           clip-path="url(#clipPath80)"><path
             d="m 6697.91,2153.55 c -55.31,0 -110.77,1.98 -166.36,5.98 0.25,0.13 0.27,0.14 0.51,0.27 55.4,-3.98 110.75,-5.95 165.88,-5.95 1227.69,0 2364.45,973.78 2372.18,2356.76 l 9.74,1743.08 v 0 0 l -9.73,-1743.08 C 9062.39,3127.63 7925.59,2153.55 6697.91,2153.55 m 2381.97,4104.23 c 5.55,1390.49 -1135.29,2379.34 -2371.64,2379.34 -78.57,0 -157.39,-3.98 -236.46,-12.11 -0.08,0.06 -0.08,0.06 -0.16,0.12 79.11,8.14 157.98,12.13 236.6,12.13 1236.35,0 2377.19,-988.99 2371.66,-2379.48"
             style="fill:url(#linearGradient88);fill-opacity:1;fill-rule:nonzero;stroke:none"
             id="path90" /></g></g><path
         d="m 6697.94,2153.85 c -55.13,0 -110.48,1.97 -165.88,5.95 527.4,273.64 950.5,762.95 1110.25,1424.36 l 9.55,39.54 c 706.78,737.08 923.24,1911.47 303.87,2901.43 L 7031.2,8002.85 c -156.38,249.95 -346.7,457.14 -559.42,622.16 79.07,8.13 157.89,12.11 236.46,12.11 1236.35,0 2377.19,-988.85 2371.64,-2379.34 0,-1.36 -0.01,-2.73 -0.02,-4.09 v 0 l -9.74,-1743.08 C 9062.39,3127.63 7925.63,2153.85 6697.94,2153.85"
         style="fill:#109081;fill-opacity:1;fill-rule:nonzero;stroke:none"
         id="path92" /><g
         id="g94"><g
           id="g96"
           clip-path="url(#clipPath100)"><path
             d="m 6531.55,2159.53 c -0.2,0.02 -0.29,0.03 -0.5,0.04 0.15,0.08 0.37,0.19 0.51,0.26 0.16,-0.01 0.35,-0.02 0.5,-0.03 -0.24,-0.13 -0.26,-0.14 -0.51,-0.27"
             style="fill:url(#linearGradient108);fill-opacity:1;fill-rule:nonzero;stroke:none"
             id="path110" /></g></g><path
         d="m 6531.05,2159.57 c -372.37,26.94 -748.91,144.95 -1100.75,369.55 l -592.45,378.2 1103.41,-3.85 c 2.84,-0.01 6.02,-0.02 8.86,-0.02 691.52,-0.09 1282.7,283.24 1701.74,720.25 l -9.55,-39.54 C 7482.56,2922.75 7059.46,2433.44 6532.06,2159.8 c -0.15,0.01 -0.34,0.02 -0.5,0.03 -0.14,-0.07 -0.36,-0.18 -0.51,-0.26"
         style="fill:#0a6e63;fill-opacity:1;fill-rule:nonzero;stroke:none"
         id="path112" /><g
         id="g114"><g
           id="g116"
           clip-path="url(#clipPath120)"><path
             d="m 6471.58,8624.99 c -0.07,0.05 -0.09,0.07 -0.16,0.12 l 0.2,0.02 c 0.08,-0.06 0.08,-0.06 0.16,-0.12 -0.08,-0.01 -0.12,-0.02 -0.2,-0.02"
             style="fill:url(#linearGradient128);fill-opacity:1;fill-rule:nonzero;stroke:none"
             id="path130" /></g></g><path
         d="m 7651.86,3623.7 344.93,1428 c 340.01,1407.74 -747.47,2701.23 -2116.08,2701.23 -151.21,0 -305.65,-15.76 -462.17,-48.9 l -1324.59,-280.49 1368.48,852.2 c 324.11,201.84 667.52,314.24 1008.99,349.37 0.07,-0.05 0.09,-0.07 0.16,-0.12 0.08,0 0.12,0.01 0.2,0.02 212.72,-165.02 403.04,-372.21 559.42,-622.16 L 7955.73,6525.13 C 8575.1,5535.17 8358.64,4360.78 7651.86,3623.7"
         style="fill:#01486f;fill-opacity:1;fill-rule:nonzero;stroke:none"
         id="path132" /><path
         d="m 5950.12,2903.45 c -2.84,0 -6.02,0.01 -8.86,0.02 l -1103.41,3.85 -784.92,501.07 C 2585.72,4345 2597.72,6491.78 4075.31,7411.93 l 18.64,11.61 1324.59,280.49 c 156.52,33.14 310.96,48.9 462.17,48.9 1368.61,0 2456.09,-1293.49 2116.08,-2701.23 l -344.93,-1428 C 7232.82,3186.69 6641.64,2903.36 5950.12,2903.45"
         style="fill:#013755;fill-opacity:1;fill-rule:nonzero;stroke:none"
         id="path134" /><path
         d="m 3582.99,5708.07 h 190.6 l -95.3,221.88 z m 273.54,-194.24 -51.66,121.49 h -253.16 l -52.38,-121.49 h -94.57 L 3639,6031.8 h 76.39 l 234.98,-517.97 h -93.84"
         style="fill:#f1f9ff;fill-opacity:1;fill-rule:nonzero;stroke:none"
         id="path136" /><path
         d="m 4305.75,5604.76 c 15.75,12.12 23.65,31.28 23.65,57.48 0,26.66 -7.9,46.3 -23.65,58.92 -15.76,12.6 -40.62,18.92 -74.57,18.92 h -133.13 v -153.51 h 133.13 c 33.95,0 58.81,6.07 74.57,18.19 z m -207.7,208.79 h 120.77 c 64.98,0 97.48,24.25 97.48,72.75 0,24.25 -8.01,42.44 -24.01,54.56 -16,12.12 -40.5,18.19 -73.47,18.19 h -120.77 z m 296.45,-77.84 c 16.25,-21.82 24.38,-48.74 24.38,-80.75 0,-44.13 -15.64,-78.69 -46.93,-103.66 -31.29,-24.99 -74.82,-37.47 -130.58,-37.47 h -234.98 v 517.97 h 227.7 c 53.34,0 95.31,-12.01 125.86,-36.01 30.55,-24.01 45.84,-57.11 45.84,-99.3 0,-27.17 -7.17,-50.82 -21.47,-70.93 -14.31,-20.14 -34.08,-34.81 -59.29,-44.02 30.06,-8.73 53.22,-24 69.47,-45.83"
         style="fill:#f1f9ff;fill-opacity:1;fill-rule:nonzero;stroke:none"
         id="path138" /><path
         d="m 4572,5523.28 c -34.68,10.67 -64.15,25.95 -88.39,45.83 l 32.01,68.39 c 25.21,-18.91 51.52,-32.86 78.93,-41.83 27.4,-8.98 57.35,-13.45 89.85,-13.45 35.88,0 63.65,6.29 83.29,18.91 19.64,12.61 29.46,30.3 29.46,53.1 0,19.4 -9.09,34.31 -27.28,44.74 -18.18,10.43 -48.14,20.25 -89.84,29.47 -65,14.06 -112.29,32.24 -141.87,54.56 -29.58,22.3 -44.37,54.8 -44.37,97.48 0,30.56 8.25,57.71 24.74,81.48 16.48,23.76 39.88,42.43 70.21,56.01 30.3,13.58 65.34,20.37 105.11,20.37 36.37,0 70.93,-5.45 103.67,-16.36 32.73,-10.92 59.52,-26.08 80.39,-45.47 l -31.29,-68.39 c -46.08,36.86 -97,55.3 -152.77,55.3 -33.47,0 -59.9,-6.92 -79.3,-20.74 -19.4,-13.82 -29.09,-32.62 -29.09,-56.38 0,-20.37 8.61,-35.89 25.82,-46.56 17.21,-10.67 46.67,-20.61 88.39,-29.82 43.16,-10.19 78.32,-21.22 105.49,-33.1 27.16,-11.89 48.01,-27.17 62.55,-45.83 14.56,-18.69 21.83,-42.09 21.83,-70.21 0,-31.04 -8.25,-58.08 -24.74,-81.11 -16.47,-23.04 -40.25,-40.87 -71.28,-53.48 -31.05,-12.6 -67.66,-18.91 -109.86,-18.91 -39.76,0 -76.99,5.34 -111.66,16"
         style="fill:#f1f9ff;fill-opacity:1;fill-rule:nonzero;stroke:none"
         id="path140" /><path
         d="m 5087.42,5513.83 v 440.85 h -168.78 v 77.12 h 432.85 v -77.12 H 5182 v -440.85 h -94.58"
         style="fill:#f1f9ff;fill-opacity:1;fill-rule:nonzero;stroke:none"
         id="path142" /><path
         d="m 5625.03,5801.91 c 35.4,0 61.58,6.55 78.56,19.64 16.98,13.1 25.47,32.98 25.47,59.66 0,26.19 -8.37,45.71 -25.1,58.56 -16.73,12.85 -43.04,19.28 -78.93,19.28 h -117.12 v -157.14 z m 217.52,-288.08 h -98.94 l -66.2,172.42 c -5.82,16 -14.8,27.15 -26.92,33.46 -12.13,6.3 -27.89,9.46 -47.29,9.46 h -93.84 v -215.34 h -93.11 v 517.97 h 221.88 c 58.67,0 103.3,-12.85 133.85,-38.56 30.56,-25.71 45.83,-62.56 45.83,-110.57 0,-34.45 -9.09,-63.66 -27.27,-87.67 -18.2,-24 -44.02,-41.1 -77.48,-51.28 30.55,-6.31 52.61,-27.65 66.2,-64.02 l 63.29,-165.87"
         style="fill:#f1f9ff;fill-opacity:1;fill-rule:nonzero;stroke:none"
         id="path144" /><path
         d="m 6042.61,5708.07 h 190.6 l -95.3,221.88 z m 273.53,-194.24 -51.65,121.49 h -253.16 l -52.38,-121.49 h -94.57 l 234.24,517.97 h 76.39 l 234.98,-517.97 h -93.85"
         style="fill:#f1f9ff;fill-opacity:1;fill-rule:nonzero;stroke:none"
         id="path146" /><path
         d="m 6551.49,5540.02 c -38.07,21.83 -67.29,52.74 -87.66,92.75 -20.36,40.01 -30.55,86.94 -30.55,140.77 0,53.34 10.19,100.03 30.55,140.04 20.37,40.01 49.59,70.8 87.66,92.39 38.07,21.58 82.57,32.37 133.5,32.37 34.92,0 67.76,-5.45 98.57,-16.36 30.8,-10.92 56.38,-26.08 76.75,-45.47 l -30.55,-68.39 c -23.29,18.92 -46.45,32.62 -69.48,41.11 -23.03,8.48 -47.64,12.73 -73.83,12.73 -49.97,0 -88.65,-16.25 -116.04,-48.74 -27.4,-32.5 -41.1,-79.06 -41.1,-139.68 0,-61.11 13.57,-108.03 40.74,-140.77 27.15,-32.74 65.95,-49.1 116.4,-49.1 26.19,0 50.8,4.24 73.83,12.73 23.03,8.48 46.19,22.19 69.48,41.1 l 30.55,-68.39 c -20.37,-19.39 -45.95,-34.55 -76.75,-45.46 -30.81,-10.92 -63.65,-16.37 -98.57,-16.37 -50.93,0 -95.43,10.91 -133.5,32.74"
         style="fill:#f1f9ff;fill-opacity:1;fill-rule:nonzero;stroke:none"
         id="path148" /><path
         d="m 7062.56,5513.83 v 440.85 h -168.78 v 77.12 h 432.85 v -77.12 h -169.5 v -440.85 h -94.57"
         style="fill:#f1f9ff;fill-opacity:1;fill-rule:nonzero;stroke:none"
         id="path150" /><path
         d="m 4836.55,4794.88 v 440.96 h 35.95 v -440.96 h -35.95"
         style="fill:#f1f9ff;fill-opacity:1;fill-rule:nonzero;stroke:none"
         id="path152" /><path
         d="m 5165.78,4855.1 c 17.37,21.36 26.06,51.82 26.06,91.36 0,39.15 -8.79,69.59 -26.37,91.36 -17.58,21.77 -41.93,32.66 -73.09,32.66 -31.55,0 -56.12,-10.89 -73.68,-32.66 -17.59,-21.77 -26.37,-52.21 -26.37,-91.36 0,-39.94 8.58,-70.49 25.76,-91.67 17.16,-21.17 41.74,-31.74 73.69,-31.74 31.96,0 56.62,10.68 74,32.05 z m -146.19,-45.24 c -20.97,12.79 -37.14,30.95 -48.54,54.52 -11.37,23.57 -17.06,50.93 -17.06,82.08 0,31.16 5.69,58.51 17.06,82.08 11.4,23.57 27.57,41.73 48.54,54.53 20.97,12.77 45.24,19.17 72.79,19.17 27.16,0 51.13,-6.4 71.9,-19.17 20.76,-12.8 36.84,-30.96 48.22,-54.53 11.39,-23.57 17.08,-50.92 17.08,-82.08 0,-31.15 -5.69,-58.51 -17.08,-82.08 -11.38,-23.57 -27.46,-41.73 -48.22,-54.52 -20.77,-12.79 -44.74,-19.17 -71.9,-19.17 -27.55,0 -51.82,6.38 -72.79,19.17"
         style="fill:#f1f9ff;fill-opacity:1;fill-rule:nonzero;stroke:none"
         id="path154" /><path
         d="m 5503.67,4867.98 c 17.77,20.76 26.66,49.13 26.66,85.08 0,36.33 -8.89,65 -26.66,85.96 -17.78,20.97 -42.23,31.46 -73.39,31.46 -31.56,0 -56.32,-10.49 -74.29,-31.46 -17.98,-20.96 -26.96,-49.63 -26.96,-85.96 0,-36.36 8.98,-64.82 26.96,-85.38 17.97,-20.58 42.73,-30.85 74.29,-30.85 31.16,0 55.61,10.38 73.39,31.15 z m 63.21,227.07 v -301.36 c 0,-43.53 -10.79,-76.48 -32.35,-98.86 -21.57,-22.36 -53.32,-33.55 -95.26,-33.55 -44.74,0 -83.68,10.79 -116.84,32.35 l 7.2,31.76 c 19.56,-11.58 37.54,-19.77 53.91,-24.57 16.38,-4.79 35.16,-7.19 56.33,-7.19 29.95,0 52.62,8.2 68,24.56 15.37,16.39 23.06,40.35 23.06,71.91 v 77.28 c -9.19,-20.37 -22.77,-36.05 -40.74,-47.03 -17.97,-10.99 -39.54,-16.48 -64.7,-16.48 -26.37,0 -49.73,6.3 -70.1,18.87 -20.37,12.58 -36.25,30.16 -47.64,52.73 -11.37,22.56 -17.07,48.43 -17.07,77.59 0,29.55 5.7,55.61 17.07,78.18 11.39,22.56 27.27,40.04 47.64,52.42 20.37,12.38 43.73,18.58 70.1,18.58 25.16,0 46.62,-5.2 64.4,-15.59 17.77,-10.38 31.24,-25.56 40.44,-45.53 v 53.93 h 36.55"
         style="fill:#f1f9ff;fill-opacity:1;fill-rule:nonzero;stroke:none"
         id="path156" /><path
         d="m 5858.94,4855.1 c 17.37,21.36 26.06,51.82 26.06,91.36 0,39.15 -8.79,69.59 -26.37,91.36 -17.58,21.77 -41.93,32.66 -73.08,32.66 -31.57,0 -56.13,-10.89 -73.69,-32.66 -17.59,-21.77 -26.37,-52.21 -26.37,-91.36 0,-39.94 8.58,-70.49 25.76,-91.67 17.17,-21.17 41.74,-31.74 73.69,-31.74 31.95,0 56.62,10.68 74,32.05 z m -146.19,-45.24 c -20.97,12.79 -37.14,30.95 -48.53,54.52 -11.38,23.57 -17.07,50.93 -17.07,82.08 0,31.16 5.69,58.51 17.07,82.08 11.39,23.57 27.56,41.73 48.53,54.53 20.97,12.77 45.24,19.17 72.8,19.17 27.16,0 51.12,-6.4 71.89,-19.17 20.76,-12.8 36.85,-30.96 48.22,-54.53 11.39,-23.57 17.08,-50.92 17.08,-82.08 0,-31.15 -5.69,-58.51 -17.08,-82.08 -11.37,-23.57 -27.46,-41.73 -48.22,-54.52 -20.77,-12.79 -44.73,-19.17 -71.89,-19.17 -27.56,0 -51.83,6.38 -72.8,19.17"
         style="fill:#f1f9ff;fill-opacity:1;fill-rule:nonzero;stroke:none"
         id="path158" /></g></g></svg>
